<svg width="1590" height="1024" viewBox="0 0 1590 1024" fill="none" xmlns="http://www.w3.org/2000/svg">
<g clip-path="url(#clip0_161_100)">
<path d="M1590 1024V813.5C1483.67 694 1329.5 474.901 1052.5 485C775.5 495.099 795 1024 795 1024H1590Z" fill="black" fill-opacity="0.05"/>
<rect x="1047" y="177" width="420" height="90" rx="45" fill="black" fill-opacity="0.2"/>
<rect x="1121" y="267" width="272" height="90" rx="45" fill="black" fill-opacity="0.05"/>
<rect x="1196" y="87" width="309" height="90" rx="45" fill="black" fill-opacity="0.08"/>
<rect x="214" y="413" width="272" height="90" rx="45" fill="black" fill-opacity="0.05"/>
<rect x="380" y="-8" width="269" height="53" rx="26.5" fill="black" fill-opacity="0.04"/>
<rect x="409" y="45" width="269" height="53" rx="26.5" fill="black" fill-opacity="0.04"/>
<path d="M1115.27 240.07C1115.27 239.159 1115.58 238.394 1116.2 237.775C1116.82 237.141 1117.66 236.823 1118.71 236.823C1119.79 236.823 1120.63 237.141 1121.23 237.775C1121.85 238.394 1122.16 239.159 1122.16 240.07C1122.16 240.982 1121.85 241.747 1121.23 242.365C1120.63 242.984 1119.79 243.293 1118.71 243.293C1117.66 243.293 1116.82 242.984 1116.2 242.365C1115.58 241.747 1115.27 240.982 1115.27 240.07ZM1129.19 240.07C1129.19 239.159 1129.5 238.394 1130.12 237.775C1130.73 237.141 1131.57 236.823 1132.63 236.823C1133.7 236.823 1134.54 237.141 1135.14 237.775C1135.76 238.394 1136.07 239.159 1136.07 240.07C1136.07 240.982 1135.76 241.747 1135.14 242.365C1134.54 242.984 1133.7 243.293 1132.63 243.293C1131.57 243.293 1130.73 242.984 1130.12 242.365C1129.5 241.747 1129.19 240.982 1129.19 240.07ZM1143.1 240.07C1143.1 239.159 1143.41 238.394 1144.03 237.775C1144.65 237.141 1145.49 236.823 1146.55 236.823C1147.62 236.823 1148.46 237.141 1149.06 237.775C1149.68 238.394 1149.99 239.159 1149.99 240.07C1149.99 240.982 1149.68 241.747 1149.06 242.365C1148.46 242.984 1147.62 243.293 1146.55 243.293C1145.49 243.293 1144.65 242.984 1144.03 242.365C1143.41 241.747 1143.1 240.982 1143.1 240.07ZM1163.95 237.141L1170.06 216.584H1173.82L1172.79 222.736L1166.64 243H1163.27L1163.95 237.141ZM1160.36 216.584L1165.12 237.238L1165.52 243H1161.76L1154.6 216.584H1160.36ZM1179.53 236.994L1184.14 216.584H1189.88L1182.75 243H1178.99L1179.53 236.994ZM1174.45 216.584L1180.48 236.896L1181.24 243H1177.87L1171.64 222.712L1170.62 216.584H1174.45ZM1199.7 205.5V243H1193.84V205.5H1199.7ZM1198.67 228.815L1196.77 228.791C1196.78 226.968 1197.03 225.284 1197.52 223.737C1198.03 222.191 1198.73 220.848 1199.62 219.709C1200.53 218.553 1201.62 217.666 1202.89 217.048C1204.16 216.413 1205.57 216.096 1207.12 216.096C1208.42 216.096 1209.59 216.275 1210.63 216.633C1211.69 216.991 1212.6 217.569 1213.37 218.366C1214.13 219.147 1214.71 220.173 1215.1 221.442C1215.51 222.696 1215.71 224.226 1215.71 226.032V243H1209.8V225.983C1209.8 224.714 1209.62 223.705 1209.24 222.956C1208.88 222.207 1208.35 221.67 1207.65 221.345C1206.95 221.003 1206.1 220.832 1205.09 220.832C1204.03 220.832 1203.1 221.044 1202.28 221.467C1201.49 221.89 1200.82 222.468 1200.28 223.2C1199.74 223.933 1199.34 224.779 1199.06 225.739C1198.8 226.7 1198.67 227.725 1198.67 228.815ZM1233.31 243.488C1231.36 243.488 1229.59 243.171 1228.02 242.536C1226.45 241.885 1225.12 240.982 1224.01 239.826C1222.92 238.671 1222.08 237.312 1221.5 235.749C1220.91 234.187 1220.62 232.502 1220.62 230.695V229.719C1220.62 227.652 1220.92 225.78 1221.52 224.104C1222.12 222.427 1222.96 220.995 1224.04 219.807C1225.11 218.602 1226.38 217.683 1227.84 217.048C1229.31 216.413 1230.9 216.096 1232.61 216.096C1234.49 216.096 1236.15 216.413 1237.56 217.048C1238.98 217.683 1240.15 218.578 1241.08 219.733C1242.02 220.873 1242.72 222.232 1243.18 223.811C1243.65 225.389 1243.88 227.131 1243.88 229.035V231.55H1223.47V227.326H1238.07V226.862C1238.04 225.804 1237.83 224.812 1237.44 223.884C1237.07 222.956 1236.49 222.207 1235.71 221.638C1234.92 221.068 1233.88 220.783 1232.58 220.783C1231.6 220.783 1230.73 220.995 1229.97 221.418C1229.22 221.825 1228.59 222.419 1228.09 223.2C1227.58 223.981 1227.19 224.925 1226.92 226.032C1226.66 227.123 1226.53 228.352 1226.53 229.719V230.695C1226.53 231.851 1226.68 232.925 1226.99 233.918C1227.32 234.895 1227.79 235.749 1228.41 236.481C1229.02 237.214 1229.77 237.792 1230.65 238.215C1231.53 238.622 1232.53 238.825 1233.66 238.825C1235.07 238.825 1236.33 238.54 1237.44 237.971C1238.55 237.401 1239.51 236.595 1240.32 235.554L1243.42 238.557C1242.85 239.387 1242.11 240.184 1241.2 240.949C1240.29 241.698 1239.17 242.308 1237.85 242.78C1236.55 243.252 1235.04 243.488 1233.31 243.488ZM1254.38 221.613V243H1248.5V216.584H1254.11L1254.38 221.613ZM1262.46 216.413L1262.42 221.882C1262.06 221.817 1261.67 221.768 1261.24 221.735C1260.84 221.703 1260.43 221.687 1260.02 221.687C1259.01 221.687 1258.13 221.833 1257.36 222.126C1256.6 222.403 1255.95 222.81 1255.43 223.347C1254.93 223.868 1254.54 224.502 1254.26 225.251C1253.98 226 1253.82 226.838 1253.77 227.766L1252.43 227.863C1252.43 226.203 1252.59 224.665 1252.92 223.249C1253.24 221.833 1253.73 220.588 1254.38 219.514C1255.05 218.439 1255.88 217.601 1256.87 216.999C1257.88 216.397 1259.05 216.096 1260.36 216.096C1260.72 216.096 1261.1 216.128 1261.51 216.193C1261.93 216.258 1262.25 216.332 1262.46 216.413ZM1277.31 243.488C1275.35 243.488 1273.59 243.171 1272.01 242.536C1270.45 241.885 1269.11 240.982 1268.01 239.826C1266.92 238.671 1266.08 237.312 1265.49 235.749C1264.91 234.187 1264.61 232.502 1264.61 230.695V229.719C1264.61 227.652 1264.91 225.78 1265.52 224.104C1266.12 222.427 1266.96 220.995 1268.03 219.807C1269.1 218.602 1270.37 217.683 1271.84 217.048C1273.3 216.413 1274.89 216.096 1276.6 216.096C1278.49 216.096 1280.14 216.413 1281.56 217.048C1282.97 217.683 1284.14 218.578 1285.07 219.733C1286.02 220.873 1286.72 222.232 1287.17 223.811C1287.64 225.389 1287.88 227.131 1287.88 229.035V231.55H1267.47V227.326H1282.07V226.862C1282.04 225.804 1281.82 224.812 1281.43 223.884C1281.06 222.956 1280.48 222.207 1279.7 221.638C1278.92 221.068 1277.88 220.783 1276.58 220.783C1275.6 220.783 1274.73 220.995 1273.96 221.418C1273.21 221.825 1272.59 222.419 1272.08 223.2C1271.58 223.981 1271.19 224.925 1270.91 226.032C1270.65 227.123 1270.52 228.352 1270.52 229.719V230.695C1270.52 231.851 1270.68 232.925 1270.98 233.918C1271.31 234.895 1271.78 235.749 1272.4 236.481C1273.02 237.214 1273.77 237.792 1274.65 238.215C1275.53 238.622 1276.53 238.825 1277.65 238.825C1279.07 238.825 1280.33 238.54 1281.43 237.971C1282.54 237.401 1283.5 236.595 1284.31 235.554L1287.42 238.557C1286.85 239.387 1286.1 240.184 1285.19 240.949C1284.28 241.698 1283.17 242.308 1281.85 242.78C1280.55 243.252 1279.03 243.488 1277.31 243.488ZM1319.81 237.702V225.104C1319.81 224.16 1319.64 223.347 1319.3 222.663C1318.96 221.979 1318.44 221.451 1317.74 221.076C1317.05 220.702 1316.19 220.515 1315.15 220.515C1314.19 220.515 1313.36 220.677 1312.66 221.003C1311.96 221.328 1311.41 221.768 1311.02 222.321C1310.63 222.875 1310.44 223.501 1310.44 224.201H1304.58C1304.58 223.16 1304.83 222.15 1305.33 221.174C1305.84 220.197 1306.57 219.326 1307.53 218.562C1308.49 217.797 1309.64 217.194 1310.97 216.755C1312.31 216.315 1313.81 216.096 1315.47 216.096C1317.45 216.096 1319.21 216.429 1320.74 217.097C1322.29 217.764 1323.5 218.773 1324.38 220.124C1325.27 221.459 1325.72 223.135 1325.72 225.153V236.896C1325.72 238.101 1325.8 239.183 1325.96 240.144C1326.14 241.088 1326.4 241.91 1326.72 242.609V243H1320.69C1320.41 242.365 1320.19 241.56 1320.03 240.583C1319.89 239.59 1319.81 238.63 1319.81 237.702ZM1320.67 226.936L1320.72 230.573H1316.49C1315.4 230.573 1314.44 230.679 1313.61 230.891C1312.78 231.086 1312.09 231.379 1311.54 231.77C1310.98 232.16 1310.57 232.632 1310.29 233.186C1310.01 233.739 1309.88 234.366 1309.88 235.065C1309.88 235.765 1310.04 236.408 1310.36 236.994C1310.69 237.564 1311.16 238.011 1311.78 238.337C1312.42 238.662 1313.18 238.825 1314.08 238.825C1315.28 238.825 1316.33 238.581 1317.22 238.093C1318.14 237.588 1318.85 236.978 1319.37 236.262C1319.89 235.529 1320.17 234.838 1320.2 234.187L1322.11 236.799C1321.91 237.466 1321.58 238.182 1321.11 238.947C1320.63 239.712 1320.02 240.445 1319.25 241.145C1318.5 241.828 1317.6 242.39 1316.54 242.829C1315.5 243.269 1314.29 243.488 1312.93 243.488C1311.2 243.488 1309.66 243.146 1308.31 242.463C1306.96 241.763 1305.9 240.827 1305.14 239.655C1304.37 238.467 1303.99 237.124 1303.99 235.627C1303.99 234.227 1304.25 232.99 1304.77 231.916C1305.31 230.826 1306.09 229.914 1307.12 229.182C1308.16 228.449 1309.43 227.896 1310.93 227.521C1312.42 227.131 1314.13 226.936 1316.05 226.936H1320.67ZM1337.76 221.955V243H1331.87V216.584H1337.42L1337.76 221.955ZM1336.8 228.815L1334.8 228.791C1334.8 226.968 1335.03 225.284 1335.49 223.737C1335.94 222.191 1336.61 220.848 1337.49 219.709C1338.37 218.553 1339.46 217.666 1340.76 217.048C1342.08 216.413 1343.6 216.096 1345.33 216.096C1346.53 216.096 1347.63 216.275 1348.62 216.633C1349.63 216.975 1350.5 217.52 1351.23 218.269C1351.98 219.017 1352.55 219.978 1352.94 221.149C1353.35 222.321 1353.55 223.737 1353.55 225.397V243H1347.67V225.91C1347.67 224.624 1347.47 223.615 1347.08 222.883C1346.71 222.15 1346.16 221.63 1345.45 221.32C1344.75 220.995 1343.91 220.832 1342.93 220.832C1341.83 220.832 1340.88 221.044 1340.1 221.467C1339.34 221.89 1338.71 222.468 1338.22 223.2C1337.73 223.933 1337.37 224.779 1337.15 225.739C1336.92 226.7 1336.8 227.725 1336.8 228.815ZM1353.19 227.253L1350.43 227.863C1350.43 226.268 1350.65 224.763 1351.09 223.347C1351.54 221.914 1352.2 220.661 1353.06 219.587C1353.94 218.496 1355.03 217.642 1356.31 217.023C1357.6 216.405 1359.07 216.096 1360.73 216.096C1362.08 216.096 1363.29 216.283 1364.34 216.657C1365.42 217.015 1366.33 217.585 1367.08 218.366C1367.83 219.147 1368.4 220.165 1368.79 221.418C1369.18 222.655 1369.37 224.152 1369.37 225.91V243H1363.46V225.886C1363.46 224.551 1363.27 223.518 1362.88 222.785C1362.5 222.053 1361.97 221.548 1361.27 221.271C1360.57 220.979 1359.73 220.832 1358.75 220.832C1357.84 220.832 1357.04 221.003 1356.34 221.345C1355.65 221.67 1355.07 222.134 1354.6 222.736C1354.13 223.322 1353.77 223.998 1353.53 224.763C1353.3 225.528 1353.19 226.358 1353.19 227.253ZM1394.18 216.584V243H1388.27V216.584H1394.18ZM1387.88 209.65C1387.88 208.755 1388.17 208.015 1388.76 207.429C1389.36 206.826 1390.19 206.525 1391.25 206.525C1392.29 206.525 1393.11 206.826 1393.71 207.429C1394.32 208.015 1394.62 208.755 1394.62 209.65C1394.62 210.529 1394.32 211.262 1393.71 211.848C1393.11 212.434 1392.29 212.727 1391.25 212.727C1390.19 212.727 1389.36 212.434 1388.76 211.848C1388.17 211.262 1387.88 210.529 1387.88 209.65ZM1411.63 232.526H1406.19C1406.21 231.013 1406.34 229.743 1406.58 228.718C1406.82 227.676 1407.23 226.732 1407.8 225.886C1408.39 225.039 1409.16 224.144 1410.12 223.2C1410.87 222.484 1411.54 221.809 1412.15 221.174C1412.75 220.523 1413.23 219.839 1413.59 219.123C1413.94 218.391 1414.12 217.552 1414.12 216.608C1414.12 215.583 1413.95 214.712 1413.61 213.996C1413.27 213.28 1412.76 212.735 1412.1 212.36C1411.45 211.986 1410.63 211.799 1409.66 211.799C1408.84 211.799 1408.08 211.962 1407.36 212.287C1406.65 212.596 1406.07 213.085 1405.63 213.752C1405.19 214.403 1404.95 215.266 1404.92 216.34H1399.04C1399.07 214.289 1399.56 212.564 1400.5 211.164C1401.44 209.764 1402.71 208.715 1404.31 208.015C1405.9 207.315 1407.69 206.965 1409.66 206.965C1411.84 206.965 1413.7 207.339 1415.25 208.088C1416.79 208.82 1417.97 209.895 1418.79 211.311C1419.62 212.71 1420.03 214.403 1420.03 216.389C1420.03 217.821 1419.75 219.123 1419.18 220.295C1418.61 221.451 1417.87 222.533 1416.96 223.542C1416.04 224.535 1415.06 225.528 1414 226.521C1413.09 227.351 1412.47 228.254 1412.15 229.23C1411.82 230.191 1411.65 231.289 1411.63 232.526ZM1405.7 240.144C1405.7 239.265 1406 238.524 1406.6 237.922C1407.21 237.303 1408.03 236.994 1409.07 236.994C1410.11 236.994 1410.93 237.303 1411.54 237.922C1412.14 238.524 1412.44 239.265 1412.44 240.144C1412.44 241.022 1412.14 241.771 1411.54 242.39C1410.93 242.992 1410.11 243.293 1409.07 243.293C1408.03 243.293 1407.21 242.992 1406.6 242.39C1406 241.771 1405.7 241.022 1405.7 240.144Z" fill="white"/>
</g>
<defs>
<clipPath id="clip0_161_100">
<rect width="1590" height="1024" fill="white"/>
</clipPath>
</defs>
</svg>
